v 0.0 1 1.0
v 0.0 -1 1.0
v 0.10452846 1 0.9945219
v 0.10452846 -1 0.9945219
v 0.20791169 1 0.9781476
v 0.20791169 -1 0.9781476
v 0.30901699 1 0.95105652
v 0.30901699 -1 0.95105652
v 0.40673664 1 0.91354546
v 0.40673664 -1 0.91354546
v 0.5 1 0.8660254
v 0.5 -1 0.8660254
v 0.58778525 1 0.80901699
v 0.58778525 -1 0.80901699
v 0.66913061 1 0.74314483
v 0.66913061 -1 0.74314483
v 0.74314483 1 0.66913061
v 0.74314483 -1 0.66913061
v 0.80901699 1 0.58778525
v 0.80901699 -1 0.58778525
v 0.8660254 1 0.5
v 0.8660254 -1 0.5
v 0.91354546 1 0.40673664
v 0.91354546 -1 0.40673664
v 0.95105652 1 0.30901699
v 0.95105652 -1 0.30901699
v 0.9781476 1 0.20791169
v 0.9781476 -1 0.20791169
v 0.9945219 1 0.10452846
v 0.9945219 -1 0.10452846
v 1.0 1 0.0
v 1.0 -1 0.0
v 0.9945219 1 -0.10452846
v 0.9945219 -1 -0.10452846
v 0.9781476 1 -0.20791169
v 0.9781476 -1 -0.20791169
v 0.95105652 1 -0.30901699
v 0.95105652 -1 -0.30901699
v 0.91354546 1 -0.40673664
v 0.91354546 -1 -0.40673664
v 0.8660254 1 -0.5
v 0.8660254 -1 -0.5
v 0.80901699 1 -0.58778525
v 0.80901699 -1 -0.58778525
v 0.74314483 1 -0.66913061
v 0.74314483 -1 -0.66913061
v 0.66913061 1 -0.74314483
v 0.66913061 -1 -0.74314483
v 0.58778525 1 -0.80901699
v 0.58778525 -1 -0.80901699
v 0.5 1 -0.8660254
v 0.5 -1 -0.8660254
v 0.40673664 1 -0.91354546
v 0.40673664 -1 -0.91354546
v 0.30901699 1 -0.95105652
v 0.30901699 -1 -0.95105652
v 0.20791169 1 -0.9781476
v 0.20791169 -1 -0.9781476
v 0.10452846 1 -0.9945219
v 0.10452846 -1 -0.9945219
v 0.0 1 -1.0
v 0.0 -1 -1.0
v -0.10452846 1 -0.9945219
v -0.10452846 -1 -0.9945219
v -0.20791169 1 -0.9781476
v -0.20791169 -1 -0.9781476
v -0.30901699 1 -0.95105652
v -0.30901699 -1 -0.95105652
v -0.40673664 1 -0.91354546
v -0.40673664 -1 -0.91354546
v -0.5 1 -0.8660254
v -0.5 -1 -0.8660254
v -0.58778525 1 -0.80901699
v -0.58778525 -1 -0.80901699
v -0.66913061 1 -0.74314483
v -0.66913061 -1 -0.74314483
v -0.74314483 1 -0.66913061
v -0.74314483 -1 -0.66913061
v -0.80901699 1 -0.58778525
v -0.80901699 -1 -0.58778525
v -0.8660254 1 -0.5
v -0.8660254 -1 -0.5
v -0.91354546 1 -0.40673664
v -0.91354546 -1 -0.40673664
v -0.95105652 1 -0.30901699
v -0.95105652 -1 -0.30901699
v -0.9781476 1 -0.20791169
v -0.9781476 -1 -0.20791169
v -0.9945219 1 -0.10452846
v -0.9945219 -1 -0.10452846
v -1.0 1 -0.0
v -1.0 -1 -0.0
v -0.9945219 1 0.10452846
v -0.9945219 -1 0.10452846
v -0.9781476 1 0.20791169
v -0.9781476 -1 0.20791169
v -0.95105652 1 0.30901699
v -0.95105652 -1 0.30901699
v -0.91354546 1 0.40673664
v -0.91354546 -1 0.40673664
v -0.8660254 1 0.5
v -0.8660254 -1 0.5
v -0.80901699 1 0.58778525
v -0.80901699 -1 0.58778525
v -0.74314483 1 0.66913061
v -0.74314483 -1 0.66913061
v -0.66913061 1 0.74314483
v -0.66913061 -1 0.74314483
v -0.58778525 1 0.80901699
v -0.58778525 -1 0.80901699
v -0.5 1 0.8660254
v -0.5 -1 0.8660254
v -0.40673664 1 0.91354546
v -0.40673664 -1 0.91354546
v -0.30901699 1 0.95105652
v -0.30901699 -1 0.95105652
v -0.20791169 1 0.9781476
v -0.20791169 -1 0.9781476
v -0.10452846 1 0.9945219
v -0.10452846 -1 0.9945219
v 0.0 1 1.0
v 0.0 -1 1.0
v 0.0 1 1.0
v 0.10452846 1 0.9945219
v 0.20791169 1 0.9781476
v 0.30901699 1 0.95105652
v 0.40673664 1 0.91354546
v 0.5 1 0.8660254
v 0.58778525 1 0.80901699
v 0.66913061 1 0.74314483
v 0.74314483 1 0.66913061
v 0.80901699 1 0.58778525
v 0.8660254 1 0.5
v 0.91354546 1 0.40673664
v 0.95105652 1 0.30901699
v 0.9781476 1 0.20791169
v 0.9945219 1 0.10452846
v 1.0 1 0.0
v 0.9945219 1 -0.10452846
v 0.9781476 1 -0.20791169
v 0.95105652 1 -0.30901699
v 0.91354546 1 -0.40673664
v 0.8660254 1 -0.5
v 0.80901699 1 -0.58778525
v 0.74314483 1 -0.66913061
v 0.66913061 1 -0.74314483
v 0.58778525 1 -0.80901699
v 0.5 1 -0.8660254
v 0.40673664 1 -0.91354546
v 0.30901699 1 -0.95105652
v 0.20791169 1 -0.9781476
v 0.10452846 1 -0.9945219
v 0.0 1 -1.0
v -0.10452846 1 -0.9945219
v -0.20791169 1 -0.9781476
v -0.30901699 1 -0.95105652
v -0.40673664 1 -0.91354546
v -0.5 1 -0.8660254
v -0.58778525 1 -0.80901699
v -0.66913061 1 -0.74314483
v -0.74314483 1 -0.66913061
v -0.80901699 1 -0.58778525
v -0.8660254 1 -0.5
v -0.91354546 1 -0.40673664
v -0.95105652 1 -0.30901699
v -0.9781476 1 -0.20791169
v -0.9945219 1 -0.10452846
v -1.0 1 -0.0
v -0.9945219 1 0.10452846
v -0.9781476 1 0.20791169
v -0.95105652 1 0.30901699
v -0.91354546 1 0.40673664
v -0.8660254 1 0.5
v -0.80901699 1 0.58778525
v -0.74314483 1 0.66913061
v -0.66913061 1 0.74314483
v -0.58778525 1 0.80901699
v -0.5 1 0.8660254
v -0.40673664 1 0.91354546
v -0.30901699 1 0.95105652
v -0.20791169 1 0.9781476
v -0.10452846 1 0.9945219
v 0.0 -1 1.0
v 0.10452846 -1 0.9945219
v 0.20791169 -1 0.9781476
v 0.30901699 -1 0.95105652
v 0.40673664 -1 0.91354546
v 0.5 -1 0.8660254
v 0.58778525 -1 0.80901699
v 0.66913061 -1 0.74314483
v 0.74314483 -1 0.66913061
v 0.80901699 -1 0.58778525
v 0.8660254 -1 0.5
v 0.91354546 -1 0.40673664
v 0.95105652 -1 0.30901699
v 0.9781476 -1 0.20791169
v 0.9945219 -1 0.10452846
v 1.0 -1 0.0
v 0.9945219 -1 -0.10452846
v 0.9781476 -1 -0.20791169
v 0.95105652 -1 -0.30901699
v 0.91354546 -1 -0.40673664
v 0.8660254 -1 -0.5
v 0.80901699 -1 -0.58778525
v 0.74314483 -1 -0.66913061
v 0.66913061 -1 -0.74314483
v 0.58778525 -1 -0.80901699
v 0.5 -1 -0.8660254
v 0.40673664 -1 -0.91354546
v 0.30901699 -1 -0.95105652
v 0.20791169 -1 -0.9781476
v 0.10452846 -1 -0.9945219
v 0.0 -1 -1.0
v -0.10452846 -1 -0.9945219
v -0.20791169 -1 -0.9781476
v -0.30901699 -1 -0.95105652
v -0.40673664 -1 -0.91354546
v -0.5 -1 -0.8660254
v -0.58778525 -1 -0.80901699
v -0.66913061 -1 -0.74314483
v -0.74314483 -1 -0.66913061
v -0.80901699 -1 -0.58778525
v -0.8660254 -1 -0.5
v -0.91354546 -1 -0.40673664
v -0.95105652 -1 -0.30901699
v -0.9781476 -1 -0.20791169
v -0.9945219 -1 -0.10452846
v -1.0 -1 -0.0
v -0.9945219 -1 0.10452846
v -0.9781476 -1 0.20791169
v -0.95105652 -1 0.30901699
v -0.91354546 -1 0.40673664
v -0.8660254 -1 0.5
v -0.80901699 -1 0.58778525
v -0.74314483 -1 0.66913061
v -0.66913061 -1 0.74314483
v -0.58778525 -1 0.80901699
v -0.5 -1 0.8660254
v -0.40673664 -1 0.91354546
v -0.30901699 -1 0.95105652
v -0.20791169 -1 0.9781476
v -0.10452846 -1 0.9945219
v 0 1 0
v 0 -1 0
vn 0.0 0 1.0
vn 0.0 0 1.0
vn 0.10452846 0 0.9945219
vn 0.10452846 0 0.9945219
vn 0.20791169 0 0.9781476
vn 0.20791169 0 0.9781476
vn 0.30901699 0 0.95105652
vn 0.30901699 0 0.95105652
vn 0.40673664 0 0.91354546
vn 0.40673664 0 0.91354546
vn 0.5 0 0.8660254
vn 0.5 0 0.8660254
vn 0.58778525 0 0.80901699
vn 0.58778525 0 0.80901699
vn 0.66913061 0 0.74314483
vn 0.66913061 0 0.74314483
vn 0.74314483 0 0.66913061
vn 0.74314483 0 0.66913061
vn 0.80901699 0 0.58778525
vn 0.80901699 0 0.58778525
vn 0.8660254 0 0.5
vn 0.8660254 0 0.5
vn 0.91354546 0 0.40673664
vn 0.91354546 0 0.40673664
vn 0.95105652 0 0.30901699
vn 0.95105652 0 0.30901699
vn 0.9781476 0 0.20791169
vn 0.9781476 0 0.20791169
vn 0.9945219 0 0.10452846
vn 0.9945219 0 0.10452846
vn 1.0 0 0.0
vn 1.0 0 0.0
vn 0.9945219 0 -0.10452846
vn 0.9945219 0 -0.10452846
vn 0.9781476 0 -0.20791169
vn 0.9781476 0 -0.20791169
vn 0.95105652 0 -0.30901699
vn 0.95105652 0 -0.30901699
vn 0.91354546 0 -0.40673664
vn 0.91354546 0 -0.40673664
vn 0.8660254 0 -0.5
vn 0.8660254 0 -0.5
vn 0.80901699 0 -0.58778525
vn 0.80901699 0 -0.58778525
vn 0.74314483 0 -0.66913061
vn 0.74314483 0 -0.66913061
vn 0.66913061 0 -0.74314483
vn 0.66913061 0 -0.74314483
vn 0.58778525 0 -0.80901699
vn 0.58778525 0 -0.80901699
vn 0.5 0 -0.8660254
vn 0.5 0 -0.8660254
vn 0.40673664 0 -0.91354546
vn 0.40673664 0 -0.91354546
vn 0.30901699 0 -0.95105652
vn 0.30901699 0 -0.95105652
vn 0.20791169 0 -0.9781476
vn 0.20791169 0 -0.9781476
vn 0.10452846 0 -0.9945219
vn 0.10452846 0 -0.9945219
vn 0.0 0 -1.0
vn 0.0 0 -1.0
vn -0.10452846 0 -0.9945219
vn -0.10452846 0 -0.9945219
vn -0.20791169 0 -0.9781476
vn -0.20791169 0 -0.9781476
vn -0.30901699 0 -0.95105652
vn -0.30901699 0 -0.95105652
vn -0.40673664 0 -0.91354546
vn -0.40673664 0 -0.91354546
vn -0.5 0 -0.8660254
vn -0.5 0 -0.8660254
vn -0.58778525 0 -0.80901699
vn -0.58778525 0 -0.80901699
vn -0.66913061 0 -0.74314483
vn -0.66913061 0 -0.74314483
vn -0.74314483 0 -0.66913061
vn -0.74314483 0 -0.66913061
vn -0.80901699 0 -0.58778525
vn -0.80901699 0 -0.58778525
vn -0.8660254 0 -0.5
vn -0.8660254 0 -0.5
vn -0.91354546 0 -0.40673664
vn -0.91354546 0 -0.40673664
vn -0.95105652 0 -0.30901699
vn -0.95105652 0 -0.30901699
vn -0.9781476 0 -0.20791169
vn -0.9781476 0 -0.20791169
vn -0.9945219 0 -0.10452846
vn -0.9945219 0 -0.10452846
vn -1.0 0 -0.0
vn -1.0 0 -0.0
vn -0.9945219 0 0.10452846
vn -0.9945219 0 0.10452846
vn -0.9781476 0 0.20791169
vn -0.9781476 0 0.20791169
vn -0.95105652 0 0.30901699
vn -0.95105652 0 0.30901699
vn -0.91354546 0 0.40673664
vn -0.91354546 0 0.40673664
vn -0.8660254 0 0.5
vn -0.8660254 0 0.5
vn -0.80901699 0 0.58778525
vn -0.80901699 0 0.58778525
vn -0.74314483 0 0.66913061
vn -0.74314483 0 0.66913061
vn -0.66913061 0 0.74314483
vn -0.66913061 0 0.74314483
vn -0.58778525 0 0.80901699
vn -0.58778525 0 0.80901699
vn -0.5 0 0.8660254
vn -0.5 0 0.8660254
vn -0.40673664 0 0.91354546
vn -0.40673664 0 0.91354546
vn -0.30901699 0 0.95105652
vn -0.30901699 0 0.95105652
vn -0.20791169 0 0.9781476
vn -0.20791169 0 0.9781476
vn -0.10452846 0 0.9945219
vn -0.10452846 0 0.9945219
vn 0.0 0 1.0
vn 0.0 0 1.0
vn 0 1 0
vn 0 1 0
vn 0 1 0
vn 0 1 0
vn 0 1 0
vn 0 1 0
vn 0 1 0
vn 0 1 0
vn 0 1 0
vn 0 1 0
vn 0 1 0
vn 0 1 0
vn 0 1 0
vn 0 1 0
vn 0 1 0
vn 0 1 0
vn 0 1 0
vn 0 1 0
vn 0 1 0
vn 0 1 0
vn 0 1 0
vn 0 1 0
vn 0 1 0
vn 0 1 0
vn 0 1 0
vn 0 1 0
vn 0 1 0
vn 0 1 0
vn 0 1 0
vn 0 1 0
vn 0 1 0
vn 0 1 0
vn 0 1 0
vn 0 1 0
vn 0 1 0
vn 0 1 0
vn 0 1 0
vn 0 1 0
vn 0 1 0
vn 0 1 0
vn 0 1 0
vn 0 1 0
vn 0 1 0
vn 0 1 0
vn 0 1 0
vn 0 1 0
vn 0 1 0
vn 0 1 0
vn 0 1 0
vn 0 1 0
vn 0 1 0
vn 0 1 0
vn 0 1 0
vn 0 1 0
vn 0 1 0
vn 0 1 0
vn 0 1 0
vn 0 1 0
vn 0 1 0
vn 0 1 0
vn 0 -1 0
vn 0 -1 0
vn 0 -1 0
vn 0 -1 0
vn 0 -1 0
vn 0 -1 0
vn 0 -1 0
vn 0 -1 0
vn 0 -1 0
vn 0 -1 0
vn 0 -1 0
vn 0 -1 0
vn 0 -1 0
vn 0 -1 0
vn 0 -1 0
vn 0 -1 0
vn 0 -1 0
vn 0 -1 0
vn 0 -1 0
vn 0 -1 0
vn 0 -1 0
vn 0 -1 0
vn 0 -1 0
vn 0 -1 0
vn 0 -1 0
vn 0 -1 0
vn 0 -1 0
vn 0 -1 0
vn 0 -1 0
vn 0 -1 0
vn 0 -1 0
vn 0 -1 0
vn 0 -1 0
vn 0 -1 0
vn 0 -1 0
vn 0 -1 0
vn 0 -1 0
vn 0 -1 0
vn 0 -1 0
vn 0 -1 0
vn 0 -1 0
vn 0 -1 0
vn 0 -1 0
vn 0 -1 0
vn 0 -1 0
vn 0 -1 0
vn 0 -1 0
vn 0 -1 0
vn 0 -1 0
vn 0 -1 0
vn 0 -1 0
vn 0 -1 0
vn 0 -1 0
vn 0 -1 0
vn 0 -1 0
vn 0 -1 0
vn 0 -1 0
vn 0 -1 0
vn 0 -1 0
vn 0 -1 0
vn 0 1 0
vn 0 -1 0
f 1//1 4//4 3//3
f 1//1 2//2 4//4
f 3//3 6//6 5//5
f 3//3 4//4 6//6
f 5//5 8//8 7//7
f 5//5 6//6 8//8
f 7//7 10//10 9//9
f 7//7 8//8 10//10
f 9//9 12//12 11//11
f 9//9 10//10 12//12
f 11//11 14//14 13//13
f 11//11 12//12 14//14
f 13//13 16//16 15//15
f 13//13 14//14 16//16
f 15//15 18//18 17//17
f 15//15 16//16 18//18
f 17//17 20//20 19//19
f 17//17 18//18 20//20
f 19//19 22//22 21//21
f 19//19 20//20 22//22
f 21//21 24//24 23//23
f 21//21 22//22 24//24
f 23//23 26//26 25//25
f 23//23 24//24 26//26
f 25//25 28//28 27//27
f 25//25 26//26 28//28
f 27//27 30//30 29//29
f 27//27 28//28 30//30
f 29//29 32//32 31//31
f 29//29 30//30 32//32
f 31//31 34//34 33//33
f 31//31 32//32 34//34
f 33//33 36//36 35//35
f 33//33 34//34 36//36
f 35//35 38//38 37//37
f 35//35 36//36 38//38
f 37//37 40//40 39//39
f 37//37 38//38 40//40
f 39//39 42//42 41//41
f 39//39 40//40 42//42
f 41//41 44//44 43//43
f 41//41 42//42 44//44
f 43//43 46//46 45//45
f 43//43 44//44 46//46
f 45//45 48//48 47//47
f 45//45 46//46 48//48
f 47//47 50//50 49//49
f 47//47 48//48 50//50
f 49//49 52//52 51//51
f 49//49 50//50 52//52
f 51//51 54//54 53//53
f 51//51 52//52 54//54
f 53//53 56//56 55//55
f 53//53 54//54 56//56
f 55//55 58//58 57//57
f 55//55 56//56 58//58
f 57//57 60//60 59//59
f 57//57 58//58 60//60
f 59//59 62//62 61//61
f 59//59 60//60 62//62
f 61//61 64//64 63//63
f 61//61 62//62 64//64
f 63//63 66//66 65//65
f 63//63 64//64 66//66
f 65//65 68//68 67//67
f 65//65 66//66 68//68
f 67//67 70//70 69//69
f 67//67 68//68 70//70
f 69//69 72//72 71//71
f 69//69 70//70 72//72
f 71//71 74//74 73//73
f 71//71 72//72 74//74
f 73//73 76//76 75//75
f 73//73 74//74 76//76
f 75//75 78//78 77//77
f 75//75 76//76 78//78
f 77//77 80//80 79//79
f 77//77 78//78 80//80
f 79//79 82//82 81//81
f 79//79 80//80 82//82
f 81//81 84//84 83//83
f 81//81 82//82 84//84
f 83//83 86//86 85//85
f 83//83 84//84 86//86
f 85//85 88//88 87//87
f 85//85 86//86 88//88
f 87//87 90//90 89//89
f 87//87 88//88 90//90
f 89//89 92//92 91//91
f 89//89 90//90 92//92
f 91//91 94//94 93//93
f 91//91 92//92 94//94
f 93//93 96//96 95//95
f 93//93 94//94 96//96
f 95//95 98//98 97//97
f 95//95 96//96 98//98
f 97//97 100//100 99//99
f 97//97 98//98 100//100
f 99//99 102//102 101//101
f 99//99 100//100 102//102
f 101//101 104//104 103//103
f 101//101 102//102 104//104
f 103//103 106//106 105//105
f 103//103 104//104 106//106
f 105//105 108//108 107//107
f 105//105 106//106 108//108
f 107//107 110//110 109//109
f 107//107 108//108 110//110
f 109//109 112//112 111//111
f 109//109 110//110 112//112
f 111//111 114//114 113//113
f 111//111 112//112 114//114
f 113//113 116//116 115//115
f 113//113 114//114 116//116
f 115//115 118//118 117//117
f 115//115 116//116 118//118
f 117//117 120//120 119//119
f 117//117 118//118 120//120
f 119//119 122//122 121//121
f 119//119 120//120 122//122
f 123//123 124//124 243//243
f 124//124 125//125 243//243
f 125//125 126//126 243//243
f 126//126 127//127 243//243
f 127//127 128//128 243//243
f 128//128 129//129 243//243
f 129//129 130//130 243//243
f 130//130 131//131 243//243
f 131//131 132//132 243//243
f 132//132 133//133 243//243
f 133//133 134//134 243//243
f 134//134 135//135 243//243
f 135//135 136//136 243//243
f 136//136 137//137 243//243
f 137//137 138//138 243//243
f 138//138 139//139 243//243
f 139//139 140//140 243//243
f 140//140 141//141 243//243
f 141//141 142//142 243//243
f 142//142 143//143 243//243
f 143//143 144//144 243//243
f 144//144 145//145 243//243
f 145//145 146//146 243//243
f 146//146 147//147 243//243
f 147//147 148//148 243//243
f 148//148 149//149 243//243
f 149//149 150//150 243//243
f 150//150 151//151 243//243
f 151//151 152//152 243//243
f 152//152 153//153 243//243
f 153//153 154//154 243//243
f 154//154 155//155 243//243
f 155//155 156//156 243//243
f 156//156 157//157 243//243
f 157//157 158//158 243//243
f 158//158 159//159 243//243
f 159//159 160//160 243//243
f 160//160 161//161 243//243
f 161//161 162//162 243//243
f 162//162 163//163 243//243
f 163//163 164//164 243//243
f 164//164 165//165 243//243
f 165//165 166//166 243//243
f 166//166 167//167 243//243
f 167//167 168//168 243//243
f 168//168 169//169 243//243
f 169//169 170//170 243//243
f 170//170 171//171 243//243
f 171//171 172//172 243//243
f 172//172 173//173 243//243
f 173//173 174//174 243//243
f 174//174 175//175 243//243
f 175//175 176//176 243//243
f 176//176 177//177 243//243
f 177//177 178//178 243//243
f 178//178 179//179 243//243
f 179//179 180//180 243//243
f 180//180 181//181 243//243
f 181//181 182//182 243//243
f 182//182 123//123 243//243
f 183//183 184//184 184//184
f 184//184 184//184 185//185
f 185//185 184//184 186//186
f 186//186 184//184 187//187
f 187//187 184//184 188//188
f 188//188 184//184 189//189
f 189//189 184//184 190//190
f 190//190 184//184 191//191
f 191//191 184//184 192//192
f 192//192 184//184 193//193
f 193//193 184//184 194//194
f 194//194 184//184 195//195
f 195//195 184//184 196//196
f 196//196 184//184 197//197
f 197//197 184//184 198//198
f 198//198 184//184 199//199
f 199//199 184//184 200//200
f 200//200 184//184 201//201
f 201//201 184//184 202//202
f 202//202 184//184 203//203
f 203//203 184//184 204//204
f 204//204 184//184 205//205
f 205//205 184//184 206//206
f 206//206 184//184 207//207
f 207//207 184//184 208//208
f 208//208 184//184 209//209
f 209//209 184//184 210//210
f 210//210 184//184 211//211
f 211//211 184//184 212//212
f 212//212 184//184 213//213
f 213//213 184//184 214//214
f 214//214 184//184 215//215
f 215//215 184//184 216//216
f 216//216 184//184 217//217
f 217//217 184//184 218//218
f 218//218 184//184 219//219
f 219//219 184//184 220//220
f 220//220 184//184 221//221
f 221//221 184//184 222//222
f 222//222 184//184 223//223
f 223//223 184//184 224//224
f 224//224 184//184 225//225
f 225//225 184//184 226//226
f 226//226 184//184 227//227
f 227//227 184//184 228//228
f 228//228 184//184 229//229
f 229//229 184//184 230//230
f 230//230 184//184 231//231
f 231//231 184//184 232//232
f 232//232 184//184 233//233
f 233//233 184//184 234//234
f 234//234 184//184 235//235
f 235//235 184//184 236//236
f 236//236 184//184 237//237
f 237//237 184//184 238//238
f 238//238 184//184 239//239
f 239//239 184//184 240//240
f 240//240 184//184 241//241
f 241//241 184//184 242//242
f 242//242 184//184 183//183
